<mxfile host="app.diagrams.net" modified="2022-01-04T12:39:36.020Z" agent="5.0 (Macintosh; Intel Mac OS X 10_15_7) AppleWebKit/537.36 (KHTML, like Gecko) Chrome/96.0.4664.110 Safari/537.36" etag="dkUq1JkRwjuURJ4LeAbb" version="16.1.0" type="github">
  <diagram id="rQ7VI-xgdEiX1xEph6bE" name="Page-1">
    <mxGraphModel dx="1298" dy="709" grid="1" gridSize="10" guides="1" tooltips="1" connect="1" arrows="1" fold="1" page="1" pageScale="1" pageWidth="827" pageHeight="1169" math="0" shadow="0">
      <root>
        <mxCell id="0" />
        <mxCell id="1" parent="0" />
        <mxCell id="EOAfb3YNoqAjfXuz6c_j-1" value="&lt;font style=&quot;font-size: 14px&quot;&gt;Druid&lt;/font&gt;" style="shape=cube;whiteSpace=wrap;html=1;boundedLbl=1;backgroundOutline=1;darkOpacity=0.05;darkOpacity2=0.1;sketch=1;" parent="1" vertex="1">
          <mxGeometry x="80" y="170" width="130" height="80" as="geometry" />
        </mxCell>
        <mxCell id="EOAfb3YNoqAjfXuz6c_j-2" value="&lt;font style=&quot;font-size: 14px&quot;&gt;Hive&lt;/font&gt;" style="shape=cube;whiteSpace=wrap;html=1;boundedLbl=1;backgroundOutline=1;darkOpacity=0.05;darkOpacity2=0.1;sketch=1;" parent="1" vertex="1">
          <mxGeometry x="80" y="300" width="130" height="80" as="geometry" />
        </mxCell>
        <mxCell id="EOAfb3YNoqAjfXuz6c_j-3" value="Kwaibi数据库" style="shape=cylinder3;whiteSpace=wrap;html=1;boundedLbl=1;backgroundOutline=1;size=15;fontSize=14;sketch=1;" parent="1" vertex="1">
          <mxGeometry x="357" y="220" width="190" height="100" as="geometry" />
        </mxCell>
        <mxCell id="EOAfb3YNoqAjfXuz6c_j-4" value="table" style="swimlane;fontStyle=0;childLayout=stackLayout;horizontal=1;startSize=30;horizontalStack=0;resizeParent=1;resizeParentMax=0;resizeLast=0;collapsible=1;marginBottom=0;fontSize=14;sketch=1;" parent="1" vertex="1">
          <mxGeometry x="382" y="110" width="140" height="90" as="geometry" />
        </mxCell>
        <mxCell id="EOAfb3YNoqAjfXuz6c_j-5" value="table_name" style="text;strokeColor=none;fillColor=none;align=left;verticalAlign=middle;spacingLeft=4;spacingRight=4;overflow=hidden;points=[[0,0.5],[1,0.5]];portConstraint=eastwest;rotatable=0;fontSize=14;sketch=1;" parent="EOAfb3YNoqAjfXuz6c_j-4" vertex="1">
          <mxGeometry y="30" width="140" height="30" as="geometry" />
        </mxCell>
        <mxCell id="EOAfb3YNoqAjfXuz6c_j-6" value="ready_time" style="text;strokeColor=none;fillColor=none;align=left;verticalAlign=middle;spacingLeft=4;spacingRight=4;overflow=hidden;points=[[0,0.5],[1,0.5]];portConstraint=eastwest;rotatable=0;fontSize=14;sketch=1;" parent="EOAfb3YNoqAjfXuz6c_j-4" vertex="1">
          <mxGeometry y="60" width="140" height="30" as="geometry" />
        </mxCell>
        <mxCell id="EOAfb3YNoqAjfXuz6c_j-9" value="" style="shape=curlyBracket;whiteSpace=wrap;html=1;rounded=1;flipH=1;fontSize=14;sketch=1;" parent="1" vertex="1">
          <mxGeometry x="230" y="220" width="20" height="120" as="geometry" />
        </mxCell>
        <mxCell id="EOAfb3YNoqAjfXuz6c_j-10" value="" style="endArrow=classic;html=1;rounded=0;fontSize=14;exitX=0.35;exitY=0.267;exitDx=0;exitDy=0;exitPerimeter=0;entryX=0;entryY=0;entryDx=0;entryDy=32.5;entryPerimeter=0;sketch=1;" parent="1" source="EOAfb3YNoqAjfXuz6c_j-9" target="EOAfb3YNoqAjfXuz6c_j-3" edge="1">
          <mxGeometry width="50" height="50" relative="1" as="geometry">
            <mxPoint x="390" y="390" as="sourcePoint" />
            <mxPoint x="440" y="340" as="targetPoint" />
          </mxGeometry>
        </mxCell>
        <mxCell id="EOAfb3YNoqAjfXuz6c_j-11" value="1.query" style="edgeLabel;html=1;align=center;verticalAlign=middle;resizable=0;points=[];fontSize=14;sketch=1;" parent="EOAfb3YNoqAjfXuz6c_j-10" vertex="1" connectable="0">
          <mxGeometry x="-0.0001" y="1" relative="1" as="geometry">
            <mxPoint as="offset" />
          </mxGeometry>
        </mxCell>
        <mxCell id="EOAfb3YNoqAjfXuz6c_j-12" value="" style="endArrow=classic;html=1;rounded=0;fontSize=14;exitX=-0.005;exitY=0.79;exitDx=0;exitDy=0;exitPerimeter=0;entryX=0.5;entryY=0.667;entryDx=0;entryDy=0;entryPerimeter=0;sketch=1;" parent="1" source="EOAfb3YNoqAjfXuz6c_j-3" target="EOAfb3YNoqAjfXuz6c_j-9" edge="1">
          <mxGeometry width="50" height="50" relative="1" as="geometry">
            <mxPoint x="390" y="310" as="sourcePoint" />
            <mxPoint x="440" y="260" as="targetPoint" />
          </mxGeometry>
        </mxCell>
        <mxCell id="EOAfb3YNoqAjfXuz6c_j-13" value="2.ready time" style="edgeLabel;html=1;align=center;verticalAlign=middle;resizable=0;points=[];fontSize=14;sketch=1;" parent="EOAfb3YNoqAjfXuz6c_j-12" vertex="1" connectable="0">
          <mxGeometry x="-0.068" y="4" relative="1" as="geometry">
            <mxPoint as="offset" />
          </mxGeometry>
        </mxCell>
        <mxCell id="EOAfb3YNoqAjfXuz6c_j-14" value="&lt;font style=&quot;font-size: 14px&quot;&gt;Druid&lt;/font&gt;" style="shape=cube;whiteSpace=wrap;html=1;boundedLbl=1;backgroundOutline=1;darkOpacity=0.05;darkOpacity2=0.1;sketch=1;" parent="1" vertex="1">
          <mxGeometry x="889" y="235" width="130" height="80" as="geometry" />
        </mxCell>
        <mxCell id="EOAfb3YNoqAjfXuz6c_j-15" value="Kafka" style="shape=dataStorage;whiteSpace=wrap;html=1;fixedSize=1;fontSize=14;sketch=1;" parent="1" vertex="1">
          <mxGeometry x="636" y="230" width="170" height="70" as="geometry" />
        </mxCell>
        <mxCell id="EOAfb3YNoqAjfXuz6c_j-17" value="" style="endArrow=classic;html=1;rounded=0;fontSize=14;exitX=0;exitY=0;exitDx=0;exitDy=30;exitPerimeter=0;entryX=0.9;entryY=0.5;entryDx=0;entryDy=0;entryPerimeter=0;sketch=1;" parent="1" source="EOAfb3YNoqAjfXuz6c_j-14" target="EOAfb3YNoqAjfXuz6c_j-15" edge="1">
          <mxGeometry width="50" height="50" relative="1" as="geometry">
            <mxPoint x="450" y="310" as="sourcePoint" />
            <mxPoint x="750" y="260" as="targetPoint" />
          </mxGeometry>
        </mxCell>
        <mxCell id="EOAfb3YNoqAjfXuz6c_j-18" value="变更消息" style="edgeLabel;html=1;align=center;verticalAlign=middle;resizable=0;points=[];fontSize=14;sketch=1;" parent="EOAfb3YNoqAjfXuz6c_j-17" vertex="1" connectable="0">
          <mxGeometry y="-3" relative="1" as="geometry">
            <mxPoint as="offset" />
          </mxGeometry>
        </mxCell>
        <mxCell id="EOAfb3YNoqAjfXuz6c_j-19" value="" style="endArrow=classic;html=1;rounded=0;fontSize=14;exitX=0;exitY=0.5;exitDx=0;exitDy=0;sketch=1;" parent="1" source="EOAfb3YNoqAjfXuz6c_j-15" edge="1">
          <mxGeometry width="50" height="50" relative="1" as="geometry">
            <mxPoint x="450" y="310" as="sourcePoint" />
            <mxPoint x="550" y="265" as="targetPoint" />
          </mxGeometry>
        </mxCell>
        <mxCell id="EOAfb3YNoqAjfXuz6c_j-20" value="消费消息" style="edgeLabel;html=1;align=center;verticalAlign=middle;resizable=0;points=[];fontSize=14;sketch=1;" parent="EOAfb3YNoqAjfXuz6c_j-19" vertex="1" connectable="0">
          <mxGeometry x="-0.093" relative="1" as="geometry">
            <mxPoint as="offset" />
          </mxGeometry>
        </mxCell>
        <mxCell id="EOAfb3YNoqAjfXuz6c_j-21" value="msg" style="swimlane;fontStyle=0;childLayout=stackLayout;horizontal=1;startSize=30;horizontalStack=0;resizeParent=1;resizeParentMax=0;resizeLast=0;collapsible=1;marginBottom=0;fontSize=14;sketch=1;" parent="1" vertex="1">
          <mxGeometry x="790" y="120" width="140" height="90" as="geometry" />
        </mxCell>
        <mxCell id="EOAfb3YNoqAjfXuz6c_j-22" value="table_name" style="text;strokeColor=none;fillColor=none;align=left;verticalAlign=middle;spacingLeft=4;spacingRight=4;overflow=hidden;points=[[0,0.5],[1,0.5]];portConstraint=eastwest;rotatable=0;fontSize=14;sketch=1;" parent="EOAfb3YNoqAjfXuz6c_j-21" vertex="1">
          <mxGeometry y="30" width="140" height="30" as="geometry" />
        </mxCell>
        <mxCell id="EOAfb3YNoqAjfXuz6c_j-23" value="ready_time" style="text;strokeColor=none;fillColor=none;align=left;verticalAlign=middle;spacingLeft=4;spacingRight=4;overflow=hidden;points=[[0,0.5],[1,0.5]];portConstraint=eastwest;rotatable=0;fontSize=14;sketch=1;" parent="EOAfb3YNoqAjfXuz6c_j-21" vertex="1">
          <mxGeometry y="60" width="140" height="30" as="geometry" />
        </mxCell>
        <mxCell id="EOAfb3YNoqAjfXuz6c_j-25" value="" style="ellipse;whiteSpace=wrap;html=1;aspect=fixed;fontSize=14;fillColor=#e51400;fontColor=#ffffff;strokeColor=#B20000;sketch=1;" parent="1" vertex="1">
          <mxGeometry x="560" y="290" width="20" height="20" as="geometry" />
        </mxCell>
        <mxCell id="EOAfb3YNoqAjfXuz6c_j-27" value="延迟" style="text;html=1;align=center;verticalAlign=middle;resizable=0;points=[];autosize=1;strokeColor=none;fillColor=none;fontSize=14;sketch=1;" parent="1" vertex="1">
          <mxGeometry x="590" y="290" width="40" height="20" as="geometry" />
        </mxCell>
        <mxCell id="EOAfb3YNoqAjfXuz6c_j-28" value="" style="ellipse;whiteSpace=wrap;html=1;aspect=fixed;fontSize=14;fillColor=#e51400;fontColor=#ffffff;strokeColor=#B20000;sketch=1;" parent="1" vertex="1">
          <mxGeometry x="824" y="296" width="20" height="20" as="geometry" />
        </mxCell>
        <mxCell id="EOAfb3YNoqAjfXuz6c_j-29" value="延迟&lt;br&gt;（观测有15min左右）" style="text;html=1;align=center;verticalAlign=middle;resizable=0;points=[];autosize=1;strokeColor=none;fillColor=none;fontSize=14;sketch=1;" parent="1" vertex="1">
          <mxGeometry x="790" y="300" width="150" height="40" as="geometry" />
        </mxCell>
        <mxCell id="EOAfb3YNoqAjfXuz6c_j-30" value="&lt;span style=&quot;font-size: 14px&quot;&gt;tmp_hive&lt;br&gt;&lt;/span&gt;" style="shape=cube;whiteSpace=wrap;html=1;boundedLbl=1;backgroundOutline=1;darkOpacity=0.05;darkOpacity2=0.1;dashed=1;sketch=1;" parent="1" vertex="1">
          <mxGeometry x="392" y="430" width="130" height="80" as="geometry" />
        </mxCell>
        <mxCell id="EOAfb3YNoqAjfXuz6c_j-31" value="" style="endArrow=classic;html=1;rounded=0;fontSize=14;exitX=0;exitY=0;exitDx=130;exitDy=50;exitPerimeter=0;sketch=1;" parent="1" source="EOAfb3YNoqAjfXuz6c_j-30" edge="1">
          <mxGeometry width="50" height="50" relative="1" as="geometry">
            <mxPoint x="450" y="300" as="sourcePoint" />
            <mxPoint x="970" y="320" as="targetPoint" />
          </mxGeometry>
        </mxCell>
        <mxCell id="EOAfb3YNoqAjfXuz6c_j-35" value="toDruid" style="edgeLabel;html=1;align=center;verticalAlign=middle;resizable=0;points=[];fontSize=14;sketch=1;" parent="EOAfb3YNoqAjfXuz6c_j-31" vertex="1" connectable="0">
          <mxGeometry x="-0.2353" y="1" relative="1" as="geometry">
            <mxPoint as="offset" />
          </mxGeometry>
        </mxCell>
        <mxCell id="EOAfb3YNoqAjfXuz6c_j-33" value="" style="endArrow=classic;html=1;rounded=0;fontSize=14;exitX=1;exitY=1;exitDx=0;exitDy=0;exitPerimeter=0;sketch=1;" parent="1" source="EOAfb3YNoqAjfXuz6c_j-2" edge="1">
          <mxGeometry width="50" height="50" relative="1" as="geometry">
            <mxPoint x="450" y="300" as="sourcePoint" />
            <mxPoint x="390" y="460" as="targetPoint" />
          </mxGeometry>
        </mxCell>
        <mxCell id="EOAfb3YNoqAjfXuz6c_j-34" value="创建hive临时表" style="edgeLabel;html=1;align=center;verticalAlign=middle;resizable=0;points=[];fontSize=14;sketch=1;" parent="EOAfb3YNoqAjfXuz6c_j-33" vertex="1" connectable="0">
          <mxGeometry x="-0.2495" y="1" relative="1" as="geometry">
            <mxPoint as="offset" />
          </mxGeometry>
        </mxCell>
      </root>
    </mxGraphModel>
  </diagram>
</mxfile>
